name C:\Users\u0101727\Documents\MyRepositories\upper-imu-dc\Results\main_tracking\Case_87\kinematics.mot
datacolumns 43
datarows 11
range 7.88000000 8.08000000
endheader 
time	clav_prot	clav_elev	scapula_abduction	scapula_elevation	scapula_upward_rot	scapula_winging	plane_elv	shoulder_elv	axial_rot	TrapeziusScapula_M/activation	TrapeziusScapula_S/activation	TrapeziusScapula_I/activation	TrapeziusClavicle_S/activation	SerratusAnterior_I/activation	SerratusAnterior_M/activation	SerratusAnterior_S/activation	Rhomboideus_S/activation	Rhomboideus_I/activation	LevatorScapulae/activation	Coracobrachialis/activation	DeltoideusClavicle_A/activation	DeltoideusScapula_P/activation	DeltoideusScapula_M/activation	LatissimusDorsi_S/activation	LatissimusDorsi_M/activation	LatissimusDorsi_I/activation	PectoralisMajorClavicle_S/activation	PectoralisMajorThorax_I/activation	PectoralisMajorThorax_M/activation	TeresMajor/activation	Infraspinatus_I/activation	Infraspinatus_S/activation	PectoralisMinor/activation	TeresMinor/activation	Subscapularis_S/activation	Subscapularis_M/activation	Subscapularis_I/activation	Supraspinatus_P/activation	Supraspinatus_A/activation	TRIlong/activation	BIC_long/activation	BIC_brevis/activation	
          7.88000000	        -44.60579891	          4.58178716	        -25.73298653	         -5.46314609	         48.51330322	        -11.53908340	         38.26080355	         80.56655746	         -8.60483374	          0.01000021	          0.04004041	          0.01000011	          0.01535054	          0.04529354	          0.06804698	          0.01000014	          0.01000011	          0.01000006	          0.01000013	          0.04565447	          0.08875918	          0.01000001	          0.08122327	          0.01000003	          0.01000001	          0.01000001	          0.02732751	          0.01000003	          0.01073365	          0.01000002	          0.03717059	          0.01000274	          0.01000005	          0.01000052	          0.01000010	          0.01000006	          0.01000002	          0.02472839	          0.03895256	          0.01000000	          0.02525487	          0.04811928	
          7.90000000	        -44.05872609	          4.57171139	        -25.55444970	         -5.36278384	         47.68132814	        -11.11577955	         37.52800125	         79.81977596	         -7.86099420	          0.01000022	          0.04022323	          0.01000011	          0.01517210	          0.04677679	          0.06720284	          0.01000013	          0.01000011	          0.01000006	          0.01000012	          0.04467166	          0.08888477	          0.01000001	          0.08364845	          0.01000003	          0.01000001	          0.01000002	          0.02662441	          0.01000003	          0.01003639	          0.01000002	          0.03749686	          0.01054869	          0.01000005	          0.01000054	          0.01000010	          0.01000006	          0.01000002	          0.02509410	          0.03947903	          0.01000000	          0.02640249	          0.04677846	
          7.92000000	        -43.49475656	          4.54618220	        -25.35380446	         -5.26590978	         46.83525601	        -10.67644712	         36.73782655	         79.06888310	         -7.14502609	          0.01000024	          0.04077454	          0.01000012	          0.01504779	          0.04857760	          0.06652294	          0.01000013	          0.01000010	          0.01000006	          0.01000011	          0.04359573	          0.08911280	          0.01000001	          0.08640330	          0.01000003	          0.01000001	          0.01000002	          0.02587454	          0.01000003	          0.01000154	          0.01000002	          0.03778957	          0.01201069	          0.01000005	          0.01000054	          0.01000010	          0.01000006	          0.01000002	          0.02546598	          0.04004501	          0.01000000	          0.02758311	          0.04536114	
          7.94000000	        -42.91725311	          4.50406333	        -25.13121913	         -5.17383456	         45.98003747	        -10.22391115	         35.88303833	         78.31936215	         -6.46801139	          0.01000026	          0.04144235	          0.01000012	          0.01503021	          0.05043297	          0.06617668	          0.01000012	          0.01000010	          0.01000005	          0.01000010	          0.04251818	          0.08952009	          0.01000001	          0.08945765	          0.01000003	          0.01000001	          0.01000002	          0.02517920	          0.01000003	          0.01000085	          0.01000002	          0.03816305	          0.01360010	          0.01000005	          0.01000054	          0.01000009	          0.01000006	          0.01000002	          0.02590308	          0.04073895	          0.01000000	          0.02881012	          0.04393762	
          7.96000000	        -42.32996116	          4.44414342	        -24.88699488	         -5.08814099	         45.12122583	         -9.76127479	         34.95726356	         77.57790251	         -5.83945102	          0.01000027	          0.04211753	          0.01000012	          0.01514197	          0.05217623	          0.06623126	          0.01000012	          0.01000009	          0.01000005	          0.01000009	          0.04149731	          0.09011547	          0.01000001	          0.09264290	          0.01000003	          0.01000001	          0.01000002	          0.02459992	          0.01000002	          0.01000044	          0.01000002	          0.03856840	          0.01515676	          0.01000005	          0.01000055	          0.01000009	          0.01000005	          0.01000002	          0.02640543	          0.04159841	          0.01000000	          0.03011201	          0.04257545	
          7.98000000	        -41.73687923	          4.36529433	        -24.62174501	         -5.01054526	         44.26460771	         -9.29183106	         33.95580807	         76.85182954	         -5.26634551	          0.01000026	          0.04267256	          0.01000012	          0.01539954	          0.05361653	          0.06671437	          0.01000012	          0.01000009	          0.01000005	          0.01000009	          0.04061526	          0.09086346	          0.01000001	          0.09570847	          0.01000003	          0.01000001	          0.01000002	          0.02419042	          0.01000002	          0.01000029	          0.01000002	          0.03891887	          0.01657292	          0.01000005	          0.01000056	          0.01000009	          0.01000005	          0.01000002	          0.02695841	          0.04264852	          0.01000000	          0.03147654	          0.04132918	
          8.00000000	        -41.14200932	          4.26655129	        -24.33655487	         -4.94275960	         43.41558803	         -8.81883328	         32.87636400	         76.14846599	         -4.75248959	          0.01000022	          0.04298120	          0.01000011	          0.01580800	          0.05457902	          0.06762148	          0.01000013	          0.01000009	          0.01000005	          0.01000009	          0.03993990	          0.09170483	          0.01000001	          0.09837794	          0.01000003	          0.01000001	          0.01000002	          0.02399828	          0.01000002	          0.01000023	          0.01000002	          0.03912516	          0.01775513	          0.01000005	          0.01000056	          0.01000009	          0.01000005	          0.01000002	          0.02755493	          0.04392044	          0.01000000	          0.03292029	          0.04026922	
          8.02000000	        -40.54904948	          4.14721093	        -24.03301483	         -4.88631895	         42.57861833	         -8.34524213	         31.71944989	         75.47437791	         -4.29832062	          0.01000017	          0.04296406	          0.01000010	          0.01635856	          0.05497210	          0.06891517	          0.01000013	          0.01000009	          0.01000005	          0.01000009	          0.03953987	          0.09261245	          0.01000001	          0.10044940	          0.01000003	          0.01000001	          0.01000002	          0.02404749	          0.01000002	          0.01000022	          0.01000002	          0.03912130	          0.01863838	          0.01000005	          0.01000056	          0.01000008	          0.01000005	          0.01000002	          0.02818584	          0.04543903	          0.01000000	          0.03444752	          0.03944427	
          8.04000000	        -39.96104502	          4.00695058	        -23.71303281	         -4.84239033	         41.75681166	         -7.87349483	         30.48836779	         74.83482203	         -3.90137152	          0.01000013	          0.04260568	          0.01000009	          0.01703556	          0.05480989	          0.07053977	          0.01000014	          0.01000009	          0.01000005	          0.01000010	          0.03945823	          0.09359219	          0.01000001	          0.10184799	          0.01000003	          0.01000001	          0.01000002	          0.02434765	          0.01000002	          0.01000023	          0.01000001	          0.03887882	          0.01919680	          0.01000005	          0.01000054	          0.01000008	          0.01000005	          0.01000002	          0.02885131	          0.04722760	          0.01000000	          0.03607305	          0.03888941	
          8.06000000	        -39.38009940	          3.84597726	        -23.37850193	         -4.81158859	         40.95184449	         -7.40538289	         29.18876306	         74.23351829	         -3.55712557	          0.01000011	          0.04195086	          0.01000007	          0.01780725	          0.05419447	          0.07243016	          0.01000016	          0.01000009	          0.01000005	          0.01000011	          0.03969333	          0.09466536	          0.01000001	          0.10261944	          0.01000003	          0.01000001	          0.01000002	          0.02487280	          0.01000002	          0.01000027	          0.01000001	          0.03839839	          0.01944373	          0.01000005	          0.01000051	          0.01000008	          0.01000005	          0.01000002	          0.02956284	          0.04931839	          0.01000000	          0.03781401	          0.03859112	
          8.08000000	        -38.80728667	          3.66511941	        -23.03102534	         -4.79388085	         40.16413415	         -6.94208200	         27.82807669	         73.67268184	         -3.25992452	          0.01000009	          0.04107890	          0.01000006	          0.01864635	          0.05327031	          0.07450226	          0.01000018	          0.01000010	          0.01000005	          0.01000012	          0.04018933	          0.09582059	          0.01000001	          0.10287941	          0.01000003	          0.01000001	          0.01000002	          0.02557610	          0.01000002	          0.01000040	          0.01000001	          0.03769504	          0.01943707	          0.01000005	          0.01000047	          0.01000008	          0.01000005	          0.01000002	          0.03031914	          0.05169016	          0.01000000	          0.03967693	          0.03851312	
